<?xml version="1.0" encoding="UTF-8" standalone="no"?>
<!DOCTYPE svg PUBLIC "-//W3C//DTD SVG 1.1//EN" "http://www.w3.org/Graphics/SVG/1.1/DTD/svg11.dtd">
<svg width="100%" height="100%" viewBox="0 0 500 500" version="1.1" xmlns="http://www.w3.org/2000/svg" xmlns:xlink="http://www.w3.org/1999/xlink" xml:space="preserve" xmlns:serif="http://www.serif.com/" style="fill-rule:evenodd;clip-rule:evenodd;stroke-linejoin:round;stroke-miterlimit:2;">
    <g id="Background">
    </g>
    <g transform="matrix(1,0,0,1,14,72)">
        <g transform="matrix(1,0,0,1,1,46)">
            <path d="M274.507,222.068C270.079,222.104 60.971,222.096 60.544,222.033C57.174,221.538 57.382,218.605 60.473,218.234C61.8,218.074 257.448,218.231 257.467,218.229C258.742,218.091 260.437,216.946 260.681,216.842C269.225,213.198 273.583,212.93 274.709,209.584C276.305,204.845 277.588,194.833 277.754,193.537C278.101,190.824 279.102,187.856 276.482,187.653C276.096,187.623 217.182,187.499 199.502,187.758C192.873,187.856 187.083,186.872 182.974,182.123C179.264,177.837 179.086,172.414 179.057,171.509C178.755,162.284 178.671,19.315 178.993,17.571C179.56,14.491 182.198,9.483 183.954,7.987C189.528,3.238 190.452,3.913 217.503,3.868C313.288,3.707 397.821,3.814 413.501,3.834C415.489,3.836 423.38,2.333 429.139,12.697C430.793,15.673 430.738,15.824 430.75,35.499C430.811,76.167 430.873,116.834 430.934,157.502C430.968,174.32 431.8,177.037 426.686,182.665C420.832,189.107 417.017,187.421 380.5,187.628C373.913,187.665 333.307,187.535 332.527,187.654C330.229,188.004 331.356,189.781 332.447,197.509C333.484,204.857 333.333,204.894 334.255,207.563C335.046,209.851 334.509,212.102 341.568,214.262C344.662,215.209 345.518,215.32 348.732,217.092C351.363,218.542 351.548,218.13 371.502,218.192C380.445,218.219 441.636,218.088 442.544,218.249C444.931,218.673 445.942,221.738 441.494,222.095C440.727,222.157 286.852,222.003 274.507,222.068Z" style="fill:rgb(28,75,96);"/>
        </g>
        <g transform="matrix(1,0,0,1,1,46)">
            <path d="M421.482,181.47C417.311,183.977 416.561,183.15 393.5,183.332C385.284,183.397 346.979,183.163 330.499,183.393C324.815,183.472 216.289,183.073 202.497,183.393C195.607,183.554 192.545,183.667 188.312,180.85C187.842,180.537 185.517,178.99 183.978,175.285C182.872,172.622 183.179,167.738 183.05,164.503C182.919,161.236 184.669,161.74 190.501,161.731C225.5,161.741 260.5,161.751 295.499,161.761C411.431,161.734 411.42,161.642 421.5,161.675C422.954,161.68 425.126,161.58 425.79,162.08C426.878,162.897 426.627,163.567 426.591,167.501C426.514,176.039 426.061,178.217 421.482,181.47Z" style="fill:rgb(240,241,236);"/>
        </g>
        <g transform="matrix(1.599105,0,0,1.599105,-133.37013,-32.159946)">
            <path d="M285.507,61.661C293.513,61.743 293.5,61.736 301.498,61.792C320.695,61.928 328.655,69.329 330.289,70.747C332.288,72.58 341.287,78.91 344.033,95.556C345.416,103.94 343.063,113.078 342.683,114.553C340.182,124.267 333.196,131.467 331.747,132.779C319.077,144.245 308.115,143.81 279.501,143.551C272.507,143.488 270.973,144.617 271.399,142.48C271.611,141.417 279.721,136.281 281.463,124.497C283.163,112.994 277.501,104.396 277.123,103.682C275.539,100.689 276.336,100.456 276.282,64.482C276.279,62.805 276.002,62.421 277.57,61.812C277.963,61.659 284.872,61.661 285.507,61.661Z" style="fill:rgb(194,243,250);"/>
        </g>
        <g transform="matrix(1.599105,0,0,1.599105,-133.37013,-32.159946)">
            <path d="M284.992,123.204C284.361,118.063 286.122,113.093 281.656,104.429C279.996,101.207 280.041,101.125 280.042,96.456C280.044,85.44 280.058,85.462 280.13,74.448C280.148,71.81 279.966,67.24 280.5,66.5C281.559,65.033 285.962,65.999 297.509,65.652C311.214,65.239 316.424,67.33 322.587,70.292C323.689,70.821 330.667,74.507 334.32,80.602C335.404,82.41 338.267,86.062 339.649,93.464C342.795,110.307 336.809,126.217 322.585,134.633C318.585,137 313.487,139.776 295.501,139.764C279.861,139.753 278.924,139.846 278.859,139.221C278.83,138.936 279.175,138.743 279.305,138.488C279.397,138.308 279.206,138.173 280.65,136.659C281.827,135.425 286.761,129.444 288.314,125.422C292.353,114.965 292.077,114.762 292.197,92.494C292.271,78.86 291.456,76.669 293.351,76.116C293.756,75.998 303.943,75.643 308.481,76.587C323.65,79.741 326.121,90.658 327.275,94.578C327.721,96.093 330.855,110.766 321.736,120.715C319.649,122.992 319.131,123.784 312.65,126.833C306.637,129.661 295.999,128.172 293.423,129.361C291.859,130.083 290.065,132.924 293.457,132.88C307.785,132.692 318.808,132.21 327.194,120.256C328.429,118.493 331.239,112.504 331.851,107.55C332.486,102.415 332.929,96.228 328.079,85.698C327.124,83.625 323.235,78.657 317.395,75.669C309.016,71.381 307.362,72.547 294.518,72.226C289.49,72.1 288.863,73.118 288.609,73.53C287.641,75.101 289.005,105.638 287.893,114.543C287.502,117.67 287.661,117.692 286.767,120.712C286.519,121.549 286.243,121.95 286.176,122.046C285.565,122.934 285.429,122.777 284.992,123.204Z" style="fill:rgb(95,152,172);"/>
        </g>
        <g transform="matrix(1.599105,0,0,1.599105,-133.37013,-32.159946)">
            <path d="M216.491,74.495C216.694,74.149 218.046,71.847 219.294,70.337C227.998,59.8 241.579,60.267 246.503,60.402C258.909,60.742 268.892,66.86 271.315,68.761C273.972,70.846 272.702,72.008 270.33,75.376C267.583,79.276 266.515,83.112 263.689,81.215C259.323,78.285 254.44,73.735 242.483,74.091C232.084,74.401 229.318,80.858 229.77,84.476C230.904,93.569 242.834,93.087 258.541,98.381C268.921,101.879 272.951,108.227 274.035,110.743C274.444,111.694 276.743,117.029 275.807,123.564C275.591,125.075 274.244,129.143 274.161,129.347C270.566,138.214 262.044,141.712 261.683,141.897C257.12,144.227 248.541,145.639 242.517,145.261C228.782,144.399 221.768,140.138 219.34,138.827C218.679,138.47 215.159,136.568 211.884,133.127C210.014,131.162 210.783,130.239 215.222,124.299C217.227,121.617 218.21,119.071 220.725,121.205C222.633,122.825 222.657,122.775 224.677,124.266C233.994,131.145 246.024,132.143 253.535,129.598C260.192,127.342 261.952,119.407 256.84,115.088C249.623,108.991 235.418,109.992 223.753,103.069C211.711,95.921 212.585,82.416 216.491,74.495Z" style="fill:rgb(190,239,249);"/>
        </g>
        <g transform="matrix(-1.303702,0,0,1.303702,598.861542,68.685618)">
            <path d="M327.762,44.501C328.082,43.434 327.309,42.494 332.309,38.262C340.656,31.198 350.311,32.658 351.463,32.387C354.941,31.568 358.067,15.697 369.522,22.468C370.766,23.203 374.269,26.538 373.459,31.495C373.406,31.82 373.315,32.138 373.256,32.462C372.95,34.149 373.237,34.255 374.75,35.047C377.221,36.342 376.988,36.675 387.675,49.358C390.414,52.608 390.327,52.663 393.126,55.845C393.463,56.228 393.387,56.28 397.235,60.731C397.786,61.368 399.231,63.341 400.838,65.184C401.359,65.782 405.136,70.118 407.24,72.748C409.229,75.235 411.293,73.502 414.257,75.815C416.863,77.849 419.397,84.593 412.391,88.313C410.037,89.563 410.453,89.996 409.208,92.36C407.507,95.589 408.027,95.829 389.914,133.694C386.067,141.736 386.006,141.927 386.49,142.508C387.329,143.514 396.395,141.292 400.255,144.8C400.568,145.084 402.411,146.759 402.76,149.449C403.11,152.154 401.375,152.283 399.501,152.353C398.707,152.383 360.956,152.754 359.581,152.184C356.768,151.018 358.748,147.074 359.82,145.758C364.226,140.349 376.302,144.315 378.077,142.13C378.543,141.555 378.134,141.358 381.911,133.712C382.704,132.106 382.574,132.048 391.291,113.389C392.083,111.694 394.139,107.001 394.383,106.444C394.424,106.351 398.735,97.134 399.114,96.325C401.195,91.875 401.093,91.848 403.193,87.388C404.446,84.726 402.073,84.74 402.239,80.497C402.357,77.453 401.754,77.566 399.78,75.262C399.481,74.913 399.563,74.855 396.175,70.8C392.099,65.922 392.007,66.02 387.918,61.14C386.754,59.75 386.794,59.747 385.612,58.402C385.085,57.802 385.111,57.791 379.181,50.772C374.417,45.133 370.726,39.401 367.845,41.893C365.992,43.497 369.627,46.312 369.618,54.502C369.61,61.358 366.067,67.406 364.72,67.918C363.131,68.522 363.12,68.015 361.505,67.457C354.97,63.384 354.056,62.058 352.57,62.67C351.6,63.069 347.682,66.821 341.419,63.657C340.146,63.013 337.799,60.992 337.083,58.668C335.694,54.161 338.396,52.787 335.417,50.612C334.552,49.98 328.934,46.644 328.27,45.614C328.049,45.271 327.983,44.844 327.762,44.501Z" style="fill:rgb(28,75,96);"/>
        </g>
        <path d="M215.39,314.404C207.736,322.243 200.241,321.466 185.5,321.503C181.722,321.512 178.906,321.618 178.347,320.607C177.655,319.353 177.689,319.252 177.804,282.5C177.816,278.577 179.575,279.618 183.501,279.683C195.849,279.889 203.959,278.633 210.359,282.695C215.043,285.669 216.532,287.085 219.379,293.539C220.659,296.44 221.026,304.515 219.188,308.359C217.252,312.409 216.727,312.899 215.39,314.404ZM207.375,292.593C206.275,291.25 205.257,290.094 202.329,288.923C198.515,287.397 190.028,287.852 189.298,288.137C188.347,288.507 188.156,289.724 188.31,294.503C188.471,299.508 188.226,299.495 188.314,304.496C188.413,310.098 188.139,310.976 189.051,311.922C189.838,312.74 190.739,312.951 196.518,312.897C210.394,312.767 212.581,300.317 207.375,292.593Z" style="fill:rgb(28,86,112);"/>
        <path d="M320.33,314.355C319.533,315.205 315.305,319.712 307.435,321.112C304.236,321.681 285.233,321.515 284.534,321.364C282.969,321.027 282.825,319.681 282.803,319.477C282.704,318.549 282.689,281.014 282.914,280.6C283.669,279.205 286.215,279.72 288.508,279.68C308.865,279.318 316.635,279.71 322.329,289.602C323.125,290.985 328.09,299.61 323.537,309.518C322.91,310.882 321.766,312.586 320.33,314.355ZM311.952,292.391C310.852,291.048 309.833,289.892 306.906,288.721C303.091,287.196 294.605,287.65 293.874,287.935C292.924,288.306 292.732,289.522 292.886,294.301C293.048,299.306 292.803,299.294 292.891,304.295C292.99,309.896 292.716,310.774 293.628,311.721C294.415,312.538 295.315,312.749 301.094,312.695C314.971,312.565 317.158,300.115 311.952,292.391Z" style="fill:rgb(34,88,113);"/>
        <g transform="matrix(1.599105,0,0,1.599105,-133.37013,-32.159946)">
            <path d="M263.613,122.517C263.712,120.642 263.727,120.654 263.72,120.492C263.171,107.912 242.786,106.164 236.578,104.242C232.817,103.078 222.787,100.578 218.944,92.29C217.003,88.104 213.717,62.66 248.5,64.336C255.061,64.652 262.655,67.831 266.638,70.373C268.867,71.797 266.358,74.048 265.449,75.456C265.155,75.911 264.956,76.968 261.699,75.099C257.848,72.887 252.374,71.13 248.494,70.527C240.247,69.244 234.912,70.986 229.878,74.871C225.588,78.182 223.57,86.272 229.183,91.824C234.644,97.224 244.515,98.06 249.457,99.635C255.887,101.684 265.409,103.338 269.972,111.219C275.409,120.608 269.892,132.208 264.148,136.008C245.167,148.561 217.846,135.359 215.916,131.387C215.743,131.031 215.394,130.313 217.912,126.852C218.032,126.688 218.945,125.432 220.297,125.952C220.33,125.964 220.328,125.968 221.774,127.113C224.5,129.271 229.614,131.736 230.639,132.092C246.49,137.602 257.415,133.293 260.507,129.506C263.078,126.358 263.035,125.736 263.613,122.517Z" style="fill:rgb(125,177,198);"/>
        </g>
        <path d="M409.656,301.5C409.633,295.498 409.679,295.512 409.698,289.502C409.722,281.653 409.489,280.676 410.674,279.952C411.14,279.667 411.17,279.755 417.504,279.691C420.515,279.66 419.832,281.319 420.086,285.501C420.435,291.268 419.206,296.929 419.746,297.333C419.949,297.485 420.24,297.212 420.492,297.188C420.746,297.165 421.033,297.315 421.256,297.192C421.451,297.085 421.426,296.776 421.562,296.6C421.724,296.389 421.956,296.243 422.137,296.048C423.591,294.48 423.58,294.498 424.906,292.835C425.446,292.158 432.607,285.007 435.488,281.488C437.407,279.144 440.076,279.869 443.516,279.764C445.022,279.717 444.988,279.571 446.499,279.509C447.655,279.462 449.008,280.331 447.723,281.627C446.701,282.658 446.662,282.589 445.615,283.615C439.929,289.19 435.82,294.094 435.019,295.049C433.479,296.887 432.015,297.419 434.01,299.895C435.215,301.39 437.033,304.788 440.381,308.605C442.877,311.45 443.323,312.135 443.542,312.469C446.746,317.381 450.067,319.703 449.048,321.162C448.519,321.919 448.304,321.536 443.5,321.482C442.834,321.475 442.167,321.487 441.5,321.479C436.29,321.42 436.833,319.712 429.785,311.294C426.173,306.98 425.554,304.595 423.237,307.25C421.172,309.617 420.221,310.203 420.092,312.498C419.713,319.211 421.221,321.699 416.496,321.637C411.531,321.573 410.827,321.524 410.114,320.826C409.394,320.121 409.681,319.938 409.656,301.5Z" style="fill:rgb(28,90,115);"/>
        <path d="M363.078,287.241C362.378,287.539 362.464,287.911 360.482,287.91C343.625,287.901 343.363,287.392 342.392,288.401C341.527,289.299 341.855,294.411 341.861,294.43C342.41,296.074 342.758,295.94 344.502,295.944C358.96,295.981 359.251,295.414 360.409,296.586C361.051,297.235 361.043,301.1 361.042,301.496C361.038,303.626 360.303,304.368 358.498,304.409C344.654,304.723 344.663,304.158 343.477,304.353C341.431,304.688 341.806,307.594 341.771,309.505C341.735,311.489 341.781,312.793 344.463,312.923C349.218,313.153 360.668,313.152 361.48,313.136C364.719,313.072 364.44,314.252 364.38,317.497C364.34,319.655 364.47,319.661 364.208,320.382C363.677,321.844 362.595,321.325 353.5,321.496C352.547,321.514 334.296,321.456 333.518,321.367C331.181,321.1 331.718,319.696 331.64,313.5C331.445,297.994 331.716,298.007 331.536,282.5C331.5,279.461 332.459,279.528 335.5,279.543C344.509,279.586 344.495,279.439 353.499,279.547C361.203,279.639 362.763,279.323 363.331,280.58C363.824,281.667 363.389,286.379 363.37,286.467C363.31,286.736 363.138,286.972 363.078,287.241Z" style="fill:rgb(28,88,113);"/>
        <path d="M130.723,290.486C130.725,289.772 130.739,283.547 130.867,281.557C131.004,279.43 132.896,279.664 134.498,279.665C139.546,279.668 141.029,279.052 141.074,282.482C141.378,305.503 140.787,306.657 142.665,309.381C147.062,315.762 155.861,313.348 158.03,309.257C159.34,306.786 158.68,297.217 158.881,282.512C158.922,279.488 160.217,279.655 162.501,279.678C166.473,279.718 168.79,279.145 169.207,281.562C169.475,283.114 169.445,290.582 169.408,291.497C169.076,299.709 170.516,310.244 165.752,315.715C162.915,318.972 160.007,321.109 153.441,322.084C150.511,322.519 142.035,322.346 136.911,318.041C129.335,311.676 130.927,303.013 130.723,290.486Z" style="fill:rgb(34,86,114);"/>
        <path d="M403.064,305.678C403.53,307.832 404.392,310.431 402.038,315.233C401.59,316.146 399.193,318.877 396.387,320.252C392.858,321.98 386.941,322.565 383.533,322.168C373.808,321.033 372.158,319.468 370.505,318.491C367.751,316.864 369.689,313.859 370.648,311.568C372.55,307.021 374.005,312.881 384.473,313.8C393.567,314.599 393.864,309.475 392.197,307.787C387.496,303.025 370.306,306.275 369.084,292.535C369.016,291.776 368.69,288.101 372.747,283.743C376.451,279.764 385.742,277.279 396.508,280.477C399.768,281.445 402.332,282.443 401.038,285.276C400.291,286.911 400.264,286.874 399.569,288.532C398.453,291.193 396.583,289.801 395.583,289.333C385.926,284.815 379.622,288.028 379.624,291.503C379.625,295.016 385.015,295.546 385.483,295.624C400.248,298.094 402.07,303.455 403.064,305.678Z" style="fill:rgb(28,85,110);"/>
        <path d="M65.365,293.634C65.535,293.755 65.634,293.958 65.803,294.078C67.955,295.602 74.847,295.68 82.497,299.505C87.971,302.242 91.568,311.13 84.227,318.127C84.009,318.286 83.791,318.446 83.574,318.606C82.578,319.337 77.616,322.979 68.534,322.114C58.899,321.197 56.18,318.903 54.719,318.11C54.248,317.344 52.915,317.244 54.407,313.463C54.529,313.154 55.663,310.282 56.691,309.99C58.502,309.476 63.184,313.851 70.494,313.884C74.389,313.901 75.404,313.024 75.693,312.922C75.918,312.722 76.241,312.655 76.466,312.455C77.531,311.511 77.699,310.746 77.738,310.569C78.655,306.394 71.363,305.136 66.573,304.13L64.52,303.436C58.298,301.438 57.101,300.438 55.017,296.762C51.003,289.683 57.467,282.971 60.507,281.514C70.662,276.643 81.018,280.416 82.686,281.023C85.596,282.083 87.297,282.114 85.691,285.584C85.666,285.638 85.667,285.638 84.471,288.486C83.31,291.251 82.391,290.378 79.707,289.06C70.161,284.374 62.2,288.831 64.937,293.191C65.046,293.365 65.256,293.46 65.365,293.634Z" style="fill:rgb(28,81,106);"/>
        <path d="M225.523,289.485C224.445,287.638 223.874,286.064 222.738,284.353C220.862,281.526 220.139,280.657 220.988,279.826C221.396,279.427 223.299,279.54 223.501,279.553C224.731,279.626 228.551,279.607 229.483,279.662C232.918,279.863 234.001,285.38 236.705,289.375C238.74,292.383 238.485,292.52 240.436,295.562C240.946,296.357 241.139,295.941 241.504,295.929C241.723,295.922 241.945,296.138 242.148,296.058C242.312,295.993 248.123,286.421 248.635,285.578C250.766,282.068 250.673,282.017 250.86,281.713C252.535,278.992 255.188,279.64 257.499,279.665C259.149,279.683 261.028,279.274 261.447,279.587C262.789,280.589 259.777,284.062 258.899,285.718C258.596,286.29 257.738,287.907 254.742,292.652C246.448,305.785 246.544,305.944 246.556,307.497C246.65,319.993 246.451,320.151 245.784,320.816C245.37,321.228 245.058,321.539 238.5,321.432C238.315,321.429 236.761,321.403 236.357,320.59C235.459,318.782 236.33,309.073 235.616,306.471C235.233,305.074 228.365,293.752 225.523,289.485Z" style="fill:rgb(28,88,114);"/>
        <path d="M113.374,292.506C113.435,297.036 113.47,297.869 113.428,309.502C113.393,319.451 114.472,321.512 110.5,321.505C105.506,321.497 104.473,321.532 103.855,321.062C103.097,320.486 103.05,320.296 103.098,304.501C103.144,289.121 103.067,288.999 102.52,288.479C101.607,287.61 101.405,288.026 92.479,287.902C90.806,287.878 90.418,288.041 89.959,286.427C89.956,286.414 89.948,284.782 89.996,283.467C90.071,281.367 90.032,280.388 91.592,279.882C91.955,279.764 124.348,279.555 124.492,279.57C125.659,279.694 125.78,279.555 126.516,280.488C126.989,281.088 126.974,286.37 126.253,287.245C125.254,288.456 118.761,287.694 115.526,287.874C112.91,288.019 113.424,290.695 113.374,292.506Z" style="fill:rgb(28,86,113);"/>
        <g transform="matrix(-1.303702,0,0,1.303702,598.861542,68.685618)">
            <path d="M339.647,50.256C339.145,49.896 336.033,47.663 333.24,45.946C331.229,44.709 330.134,44.437 331.621,42.597C334.816,38.642 345.239,32.494 354.599,36.193C358.755,37.835 359.269,38.355 361.564,40.442C363.464,42.168 363.616,42.067 364.766,44.349C370.148,55.027 364.847,64.501 363.476,65.072C362.791,65.358 359.574,63.056 359.263,62.834C356.506,60.861 355.053,60.22 353.189,58.993C352.743,58.699 352.787,58.637 347.663,55.256C342.517,51.861 342.403,52.06 339.647,50.256Z" style="fill:rgb(157,228,241);"/>
        </g>
        <path d="M266.41,335.498C266.551,333.804 265.944,332.357 269.5,332.328C277.757,332.261 280.381,333.193 281.186,336.608C282.199,340.903 280.402,342.777 280.033,343.161C277.473,345.829 280.624,346.379 281.295,348.589C281.516,349.319 282.033,350.634 279.52,350.196C275.692,349.528 275.652,347.216 274.206,345.828C273.414,345.068 271.591,344.961 271.145,346.343C270.781,347.471 271.143,347.52 270.815,348.639C270.334,350.273 268.729,350.094 268.513,350.07C265.745,349.76 266.504,348.461 266.41,335.498ZM274.529,336.326C272.579,336.263 272.588,336.22 272.424,336.258C270.483,336.713 271.019,339.333 271.077,339.617C271.687,342.601 277.588,340.866 277.136,338.524C276.758,336.56 274.559,336.337 274.529,336.326Z"/>
        <path d="M226.854,332.713C228.185,332.403 228.191,332.103 229.488,332.533C231.426,333.175 234.806,340.745 235.617,341.348C235.814,341.495 237.003,341.461 237.272,341.259C237.529,341.066 241.213,333.54 242.682,332.826C243.871,332.248 245.85,332.488 246.087,334.532C246.179,335.325 246.012,335.322 246.18,344.51C246.211,346.233 246.771,349.046 245.561,349.588C245.269,349.718 242.314,351.041 242.145,347.513C242.103,346.647 242.671,342.17 242.028,341.949C241.838,341.884 241.742,342.302 241.54,342.307C241.294,342.312 241.119,341.919 240.879,341.975C240.657,342.027 238.812,346.191 238.647,346.564C238.002,348.02 235.597,350.228 233.465,345.519C232.291,342.925 232.372,342.895 232.254,342.678C232.123,342.436 231.842,342.306 231.684,342.081C231.576,341.927 231.643,341.633 231.47,341.559C230.154,341 230.198,343.244 230.202,343.424C230.234,345.071 231.194,348.991 229.638,349.703C226.508,351.135 226.395,347.815 226.384,347.501C226.378,347.303 226.142,334.238 226.391,333.468C226.482,333.188 226.763,332.994 226.854,332.713Z"/>
        <path d="M373.874,337.504C373.831,342.512 373.839,342.497 373.874,347.499C373.875,347.716 373.888,349.571 372.689,349.93C370.549,350.57 368.801,348.706 368.562,348.45C368.22,348.086 363.378,341.717 363.37,341.714C362.721,341.461 361.771,342.243 361.693,342.55C361.504,343.298 363.04,349.164 360.637,349.942C357.654,350.907 357.589,347.811 357.582,347.498C357.476,342.401 357.537,336.46 357.547,335.501C357.564,333.825 357.171,333.534 358.558,332.589C360.547,331.233 363.135,334.258 363.408,334.577C364.291,335.61 366.115,338.149 367.233,339.807C367.717,340.522 367.629,340.743 368.507,340.779C370.097,340.842 369.632,340.073 369.516,338.501C369.313,335.749 368.944,332.975 370.465,332.435C370.677,332.36 372.302,331.782 373.273,332.669C374.12,333.443 373.879,336.198 373.874,337.504Z"/>
        <path d="M249.745,342.495C249.661,335.453 249.348,332.835 251.477,332.355C251.593,332.329 260.972,332.163 261.544,332.284C263.278,332.648 263.255,334.272 263.252,334.495C263.25,334.646 263.233,335.88 262.157,336.035C262.055,336.049 256.323,335.945 255.393,336.273C254.321,336.65 253.801,338.51 255.569,339.243C255.99,339.418 260.212,339.012 261.548,339.427C262.954,339.864 262.286,342.298 261.631,342.682C260.672,343.243 260.627,343.089 259.51,343.117C259.267,343.123 256.729,343.185 256.483,343.196C253.602,343.322 254.065,345.193 255.181,345.943C256.137,346.585 261.165,346.162 262.478,346.563C263.852,346.983 264.376,350.013 261.48,350.279C260.472,350.372 251.83,350.192 251.562,350.141C251.137,350.061 250.689,349.91 250.381,349.607C249.682,348.92 249.805,345.967 249.745,342.495Z"/>
        <path d="M121.384,333.581C123.435,336.921 124.752,341.399 127.244,346.727C127.279,347.148 127.453,347.089 127.488,347.509C127.53,348 127.359,347.974 127.391,348.467C127.419,348.899 127.606,349.31 127.634,349.742C127.277,349.765 126.933,349.9 126.575,349.923C123.388,350.127 123.336,347.676 122.218,346.883C121.842,346.617 121.065,346.066 116.493,346.359C114.245,346.503 114.149,348.391 113.303,349.314C112.474,350.219 110.29,350.205 109.661,349.432C109.144,348.796 109.481,347.859 111.899,342.647C115.778,334.292 115.456,332.981 117.497,332.492C120.153,331.857 121.264,333.474 121.384,333.581ZM117.843,338.75L117.123,341.523C117.254,343.329 120.572,343.388 120.499,341.5C120.483,341.108 119.408,338.695 119.349,338.668C119.29,338.642 119.311,338.797 118.563,338.837C118.186,338.858 118.207,338.73 117.843,338.75Z"/>
        <path d="M377.381,344.498C377.398,334.485 377.196,333.443 377.88,332.718C378.909,331.629 389.22,332.472 389.476,332.556C390.781,332.983 390.669,334.588 390.219,335.27C389.396,336.515 385.152,336.011 383.45,336.124C380.845,336.297 381.516,338.222 381.636,338.421C382.313,339.542 386.323,339.069 387.531,339.166C390.913,339.438 389.987,342.469 388.422,343.029C388.14,343.13 383.652,343.065 383.447,343.085C380.978,343.319 381.076,345.094 382.175,345.909C383.012,346.529 386.595,346.272 388.507,346.353C389.856,346.411 390.278,346.129 390.544,347.474C390.884,349.191 391.085,349.618 389.442,350.236C389.22,350.319 382.83,350.417 380.523,350.257C376.561,349.982 377.336,348.47 377.381,344.498Z"/>
        <path d="M161.919,349.886C161.759,349.921 161.514,350.349 160.496,350.201C153.527,349.191 154.676,343.305 151.469,344.446C150.698,344.721 150.468,346.307 150.441,346.488C150.12,348.705 150.767,349.508 148.571,349.906C145.73,350.422 145.82,347.77 145.829,347.477C146.19,336.736 144.866,333.084 146.464,332.46C149.176,331.4 150.353,333.314 150.149,335.475C150.053,336.486 149.881,336.451 149.832,337.472C149.794,338.247 149.669,338.493 150.443,338.604C151.94,338.818 152.062,337.975 153.942,335.898C155.235,334.469 156.954,331.898 160.514,332.476C161.937,332.707 161.405,333.382 160.507,334.505C157.656,338.069 154.677,339.079 156.947,342.188C159.547,345.749 159.285,345.925 160.612,347.427C161.044,347.915 161.108,347.844 161.139,347.891C161.232,348.035 161.196,348.039 161.919,349.886Z"/>
        <path d="M338.853,333.724C338.949,333.539 339.075,332.361 340.453,332.159C342.913,331.799 342.967,334.191 342.973,334.464C343.041,337.478 342.921,337.465 342.966,340.488C343.077,348.093 349.421,347.498 349.781,342.513C349.832,341.799 349.528,341.799 349.889,333.563C350.193,333.302 350.278,332.842 350.581,332.58C351.387,331.884 353.804,332.346 354.059,332.698C354.535,333.355 354.434,343.301 353.779,345.578C352.076,351.497 343.045,351.703 339.622,347.409C337.914,345.266 338.567,336.867 338.589,336.484C338.802,335.105 338.794,335.116 338.853,333.724Z"/>
        <path d="M167.483,332.417C168.605,332.26 170.71,331.657 174.456,332.643C177.647,333.483 175.785,335.94 175.303,336.189C174.093,336.811 168.724,334.982 167.871,336.712C166.103,340.297 176.166,338.135 177.227,343.572C178.543,350.312 170.334,350.885 167.577,350.187C164.537,349.418 164.675,349.126 164.232,348.878L163.788,348.245C163.697,347.666 163.607,347.087 163.516,346.508C163.797,346.252 163.627,346.144 163.912,345.885C163.952,345.848 164.104,345.71 164.521,345.594C165.798,345.238 166.692,345.949 167.582,346.218C169.569,346.819 172.036,346.357 172.258,345.422C172.681,343.642 168.788,343.138 168.582,343.088C163.527,341.848 162.049,338.597 163.498,335.499C164.794,332.731 167.13,332.524 167.483,332.417Z"/>
        <g transform="matrix(-1.303702,0,0,1.303702,598.861542,68.685618)">
            <path d="M367.218,38.291C365.68,40.081 365.143,40.207 363.418,38.598C359.889,35.309 355.881,33.761 355.675,33.397C354.958,32.126 357.444,29.497 358.598,27.566C363.493,19.375 372.299,24.971 370.651,31.541C370.503,32.129 370.043,33.963 367.218,38.291Z" style="fill:rgb(157,228,241);"/>
        </g>
        <path d="M404.401,340.655C404.716,340.881 407.523,342.141 407.16,345.459C406.421,352.216 394.128,350.772 393.45,348.546C393.409,348.41 392.988,347.028 392.991,346.835C392.992,346.785 393.614,345.761 393.673,345.716C394.885,344.799 398.478,347.199 401.426,346.335C402.665,345.972 402.97,344.18 400.479,343.563C400.057,343.458 396.579,342.597 395.337,341.775C394.858,341.458 391.05,338.941 393.815,334.754C396.309,330.977 404.823,331.843 405.67,333.365C406.564,334.97 405.714,336.918 403.496,336.517C402.519,336.34 402.565,336.192 401.581,336.045C396.736,335.324 397.227,338.079 398.369,338.663C399.536,339.26 399.573,339.09 401.499,339.507C402.911,339.812 402.848,339.952 404.401,340.655Z"/>
        <path d="M129.444,346.442C129.485,346.408 129.966,345.331 131.496,345.518C131.767,345.552 133.769,346.277 134.511,346.452C138.399,347.37 139.234,345.068 137.918,344.098C136.685,343.188 127.305,342.247 129.363,336.457C131.459,330.559 139.115,331.873 141.212,332.96C142.015,333.376 142.691,334.691 141.797,335.688C140.092,337.59 137.633,335.421 135.623,335.99C132.991,336.735 134.435,338.266 134.58,338.42C134.967,338.831 137.286,339.287 137.528,339.334C145.584,340.919 143.852,348.088 140.47,349.436C135.356,351.475 130.913,349.515 130.522,349.426C130.199,349.353 129.858,349.398 129.535,349.325C129.387,347.87 129.406,347.89 129.444,346.442Z"/>
        <g transform="matrix(-1.303702,0,0,1.303702,598.861542,68.685618)">
            <path d="M384.498,145.198C390.68,145.607 393.789,145.254 395.499,145.505C398.556,145.954 399.735,148.274 399.756,148.473C399.932,150.091 399.148,149.743 397.524,149.751C394.715,149.764 364.057,149.907 362.413,149.8C360.777,149.693 360.746,148.975 361.676,147.623C362.77,146.034 365.178,145.676 365.521,145.625C367.453,145.338 380.897,145.374 384.498,145.198Z" style="fill:rgb(157,228,241);"/>
        </g>
        <path d="M295.463,340.569C295.776,340.915 296.23,341.113 296.543,341.459C296.665,341.593 297.302,342.297 297.571,343.484C298.752,348.687 293.715,350.909 288.52,350.31C283.859,349.772 283.113,347.402 284.137,346.168C285.488,344.539 287.832,346.567 290.501,346.61C290.755,346.614 293.921,346.665 292.731,344.353C292.285,343.486 292.017,343.832 289.563,343.235C289.222,343.152 287.018,342.616 285.587,341.388C285.271,341.117 283.663,339.737 284.132,336.393C284.78,331.776 291.315,331.843 293.541,332.272C298.76,333.277 296.37,336.263 295.49,336.46C294.94,336.582 294.948,336.476 292.425,335.955C290.89,335.638 288.577,336.009 288.656,337.483C288.722,338.715 291.272,339.288 291.54,339.348C293.563,339.802 293.552,339.797 295.463,340.569Z"/>
        <g transform="matrix(-1.303702,0,0,1.303702,598.861542,68.685618)">
            <path d="M404.521,90.509C405.459,88.682 405.401,88.658 405.532,88.539C405.642,88.44 406.599,87.576 407.376,88.578C407.863,89.206 407.023,91.213 406.08,93.264C401.418,103.404 401.446,103.406 401.029,104.281C395.371,116.153 395.51,116.209 395.009,117.236C390.816,125.84 387.274,133.787 385.093,138.315C383.565,141.486 383.883,141.732 382.591,142.707C382.45,142.814 382.374,143.068 382.197,143.064C380.685,143.026 381.089,141.651 381.132,141.506C381.424,140.51 400.454,99.743 404.521,90.509Z" style="fill:rgb(157,228,241);"/>
        </g>
        <g transform="matrix(-1.303702,0,0,1.303702,598.861542,68.685618)">
            <path d="M376.446,43.545C375.982,43.002 375.96,43.038 375.531,42.475C373.255,39.485 370.821,38.902 370.578,38.472C370.406,38.166 371.227,36.956 371.639,36.856C373.935,36.302 375.09,37.983 388.176,53.77C388.331,53.956 405.002,73.631 405.322,74.509C405.373,74.646 405.838,75.918 404.451,76.116C403.847,76.202 402.559,74.714 402.425,74.56C398.475,69.999 398.617,69.897 394.74,65.282C393.937,64.326 385.082,53.786 384.699,53.341C378.13,45.698 377.962,45.318 376.446,43.545Z" style="fill:rgb(157,228,241);"/>
        </g>
        <path d="M108.473,336.064C108.239,336.084 105.65,335.868 105.269,337.437C105.132,338.002 105.316,346.514 105.156,347.492C104.499,351.491 100.816,349.446 100.73,349.343C99.933,348.375 100.446,342.199 100.254,338.507C100.06,334.797 96.526,336.551 95.451,335.572C95.276,335.413 93.672,333.952 95.598,332.623C96.231,332.186 98.275,332.212 98.511,332.215C108.593,332.34 108.718,332.054 109.383,332.616C111.102,334.068 109.7,335.373 109.529,335.533C109.24,335.801 108.761,335.796 108.473,336.064Z"/>
        <g transform="matrix(1,0,0,1,1,46)">
            <path d="M299.118,170.352C299.253,170.071 299.346,169.771 299.481,169.49C302.315,163.578 310.21,166.312 310.923,171.44C311.997,179.175 302.141,180.748 299.422,175.55C297.982,172.795 298.96,171.09 299.118,170.352Z" style="fill:rgb(22,34,46);"/>
        </g>
        <path d="M202.412,335.963C202.155,335.73 201.711,335.79 201.453,335.558C201.276,335.398 199.753,334.021 201.568,332.58C202.102,332.157 205.193,332.233 205.509,332.24C213.245,332.431 213.267,332.027 214.545,332.348C216.535,332.849 215.724,335.44 215.585,335.59C215.303,335.894 214.73,335.792 214.447,336.096C213.588,336.136 211.547,335.851 210.936,337.589C210.802,337.969 210.913,346.543 210.851,347.521C210.579,351.837 206.679,349.464 206.633,349.41C205.767,348.402 206.28,340.463 206.145,338.515C205.961,335.86 205.078,336.227 202.412,335.963Z"/>
        <path d="M336.551,333.472C336.528,335.386 336.53,335.374 336.526,335.539C336.518,335.812 336.443,335.785 336.434,336.074C332.829,336.225 332.217,336.325 331.802,336.77C330.788,337.855 331.589,346.405 331.243,348.454C330.888,350.556 327.716,350.599 327.082,348.654C326.959,348.274 327.003,347.854 326.88,347.474C326.785,339.195 326.825,339.209 326.807,338.491C326.731,335.295 324.105,336.554 322.386,335.693C321.74,335.37 321.443,334.061 321.697,333.558C322.526,331.912 325.158,332.206 325.502,332.212C333.8,332.348 333.791,332.224 334.511,332.249C336.562,332.322 336.326,333.226 336.551,333.472Z"/>
        <path d="M218.207,337.494C218.508,333.782 217.801,331.727 221.416,332.673C222.161,332.867 222.547,333.261 222.721,334.458C222.842,335.29 222.746,347.291 222.735,347.512C222.565,351.056 219.234,349.76 218.784,349.275C218.102,348.541 218.153,347.295 218.207,337.494Z"/>
        <g transform="matrix(-1.303702,0,0,1.303702,598.861542,68.685618)">
            <path d="M406.258,84.745C405.273,83.221 404.958,83.308 404.878,81.495C404.728,78.077 407.93,76.75 409.529,76.864C415.097,77.261 415.275,83.329 412.355,85.279C408.997,87.522 406.264,84.75 406.258,84.745Z" style="fill:rgb(157,228,241);"/>
        </g>
        <g transform="matrix(-1.303702,0,0,1.303702,598.861542,68.685618)">
            <path d="M339.736,57.443C339.52,55.972 339.16,55.966 339.581,54.541C339.742,53.994 339.788,53.855 340.348,54.021C340.785,54.15 341.529,54.37 345.291,56.853C350.023,59.974 350.101,60.02 350.123,60.504C350.183,61.888 345.223,63.035 342.235,60.883C340.117,59.357 339.77,57.524 339.736,57.443Z" style="fill:rgb(105,185,197);"/>
        </g>
        <g transform="matrix(-1.303702,0,0,1.303702,598.861542,68.685618)">
            <path d="M362.671,53.501C362.472,50.969 362.547,49.911 360.158,45.661C360.062,45.491 358.78,43.21 360.393,43.226C361.884,43.24 363.975,47.281 364.624,50.474C365.429,54.429 364.446,58.602 364.141,59.289C363.277,61.237 361.655,60.67 361.949,58.55C362.3,56.009 362.486,56.051 362.671,53.501Z" style="fill:rgb(178,244,246);"/>
        </g>
        <path d="M306.735,343.447C306.767,342.618 306.261,342.235 307.462,340.47C307.525,340.378 307.854,339.895 308.555,339.613C312.038,338.217 314.213,342.274 313.006,344.26C311.54,346.674 308.392,346.497 307.286,344.629C307.065,344.255 306.956,343.821 306.735,343.447Z"/>
        <path d="M192.728,342.499C192.563,343.092 192.713,344.562 190.697,345.875C190.536,345.98 189.519,346.643 188.293,345.856C184.315,343.306 186.774,339.684 189.504,339.532C192.808,339.348 192.722,342.477 192.728,342.499Z"/>
        <g transform="matrix(-1.303702,0,0,1.303702,598.861542,68.685618)">
            <path d="M327.564,57.641C327.861,57.532 330.715,56.481 331.423,56.764C331.652,56.856 332.281,57.936 332.179,58.307C331.985,59.005 327.216,60.725 326.459,60.679C325.502,60.622 324.891,59.503 325.64,58.625C325.981,58.227 326.045,58.33 327.564,57.641Z" style="fill:rgb(178,244,246);"/>
        </g>
        <g transform="matrix(-1.303702,0,0,1.303702,598.861542,68.685618)">
            <path d="M344.66,73.528C344.603,73.777 344.037,76.25 343.502,76.504C341.167,77.614 341.88,73.841 341.93,73.58C342.682,69.599 343.207,69.768 343.544,69.715C344.92,69.501 344.852,70.043 344.899,71.452C344.904,71.619 344.881,71.606 344.66,73.528Z" style="fill:rgb(174,241,246);"/>
        </g>
        <g transform="matrix(-1.303702,0,0,1.303702,598.861542,68.685618)">
            <path d="M332.476,70.153C332.465,69.917 332.617,69.692 332.606,69.456C332.599,69.312 332.13,68.688 332.837,67.766C333.043,67.498 335.215,64.668 336.448,65.572C337.608,66.424 335.782,68.414 335.612,68.6C335.463,68.762 334.253,70.081 333.434,70.279C333.121,70.355 332.789,70.077 332.476,70.153Z" style="fill:rgb(187,244,246);"/>
        </g>
    </g>
</svg>
